<?xml version="1.0" standalone="no"?>
<!DOCTYPE svg PUBLIC "-//W3C//DTD SVG 20010904//EN"
 "http://www.w3.org/TR/2001/REC-SVG-20010904/DTD/svg10.dtd">
<svg version="1.0" xmlns="http://www.w3.org/2000/svg"
 width="792.000000pt" height="792.000000pt" viewBox="0 0 792.000000 792.000000"
 preserveAspectRatio="xMidYMid meet">
<metadata>
Created by potrace 1.14, written by Peter Selinger 2001-2017
</metadata>
<g transform="translate(0.000000,792.000000) scale(0.100000,-0.100000)"
fill="#000000" stroke="none">
<path d="M6515 7182 c-66 -23 -116 -62 -171 -134 -60 -77 -90 -92 -168 -85
-34 4 -72 9 -86 12 -101 23 -136 27 -217 31 -139 5 -227 -29 -282 -111 -27
-41 -67 -65 -106 -65 -41 0 -130 35 -238 95 -150 82 -207 94 -322 66 -64 -15
-121 -55 -159 -109 -46 -65 -43 -136 13 -277 58 -146 61 -175 26 -203 -15 -12
-32 -22 -37 -22 -23 0 -91 -58 -122 -104 -32 -50 -86 -190 -86 -226 0 -12 -10
-21 -28 -25 -45 -9 -79 -46 -97 -105 -45 -149 -62 -172 -132 -188 -47 -11 -77
-9 -127 8 -32 10 -36 16 -47 66 -18 79 -42 112 -102 139 -93 43 -235 37 -306
-14 -16 -12 -39 -42 -51 -67 -22 -44 -23 -82 -6 -151 3 -13 8 -31 10 -41 2 -9
9 -37 16 -61 36 -134 6 -176 -132 -187 -153 -12 -218 -75 -214 -205 1 -31 7
-69 13 -85 7 -16 24 -60 39 -99 32 -83 35 -158 8 -204 -13 -22 -47 -45 -119
-81 -165 -83 -228 -140 -292 -260 -37 -71 -73 -180 -73 -226 0 -65 21 -123 62
-169 57 -65 108 -89 190 -89 38 -1 68 -3 69 -6 0 -3 3 -54 5 -115 4 -127 16
-192 46 -252 29 -57 94 -89 198 -98 113 -9 139 -33 137 -125 -3 -86 -59 -150
-114 -129 -12 4 -48 28 -80 52 -170 128 -255 137 -349 37 -63 -67 -66 -67
-145 -20 -117 72 -222 65 -276 -17 -14 -22 -18 -49 -19 -133 l0 -105 -33 -22
c-35 -24 -96 -43 -231 -75 -47 -11 -123 -31 -170 -46 -77 -23 -91 -31 -145
-86 -45 -45 -75 -91 -119 -176 -119 -233 -266 -422 -347 -446 -53 -17 -113 -9
-219 26 -228 75 -307 72 -387 -18 -60 -67 -71 -135 -37 -235 27 -78 25 -188
-5 -255 -27 -60 -16 -57 -131 -27 -58 15 -107 42 -96 52 2 2 -2 31 -10 64 -28
121 -72 172 -178 210 -142 49 -221 27 -275 -79 -26 -51 -71 -93 -134 -127
-114 -61 -143 -113 -116 -208 14 -52 65 -105 135 -142 31 -16 62 -38 68 -47 7
-12 6 -43 -3 -105 -28 -181 -12 -283 54 -361 64 -74 137 -95 276 -78 75 9 84
6 169 -59 76 -58 152 -95 210 -102 41 -5 59 -1 102 21 56 28 95 72 144 165 31
58 75 111 93 111 6 0 30 -17 54 -39 107 -98 205 -103 302 -15 56 52 70 53 200
20 145 -38 220 -23 267 51 22 36 23 47 23 218 0 185 7 219 47 252 22 18 87 31
193 37 268 17 287 28 405 238 63 111 178 207 248 208 86 1 161 -103 187 -258
19 -112 85 -210 159 -235 56 -19 166 -19 281 0 103 16 175 13 325 -17 174 -34
181 -35 290 -34 82 0 119 5 170 23 89 31 252 114 423 215 281 166 350 191 497
186 52 -2 170 -4 261 -5 l166 0 48 30 c66 41 104 101 155 241 109 304 159 369
386 504 216 129 363 200 399 193 11 -1 72 -6 135 -9 106 -6 119 -4 163 16 85
40 137 129 137 236 0 62 -12 97 -79 234 -62 124 -69 183 -33 242 49 78 124
116 341 169 171 42 232 72 263 129 47 85 -6 233 -152 425 -103 135 -120 163
-120 197 0 43 10 56 48 69 162 53 268 238 201 349 -32 52 -53 66 -142 96 -129
42 -154 58 -168 103 -12 42 1 105 24 114 7 2 45 -4 85 -14 41 -10 95 -17 121
-15 92 4 208 81 252 167 38 75 31 142 -25 223 -30 44 -31 63 -14 197 24 193
-33 304 -212 418 -101 64 -135 77 -290 106 -69 13 -135 42 -171 74 -57 51 -62
84 -32 207 47 189 12 351 -103 474 -47 50 -139 103 -199 115 -77 16 -210 14
-260 -3z m261 -107 c85 -24 170 -114 203 -215 23 -71 21 -136 -5 -238 -42
-162 -33 -225 44 -298 37 -35 143 -94 169 -94 7 0 16 -6 19 -13 4 -10 -22
-154 -50 -277 -24 -105 -73 -246 -101 -290 -33 -52 -50 -63 -97 -60 -148 8
-184 -6 -238 -90 -46 -71 -67 -148 -64 -228 5 -126 22 -159 132 -252 101 -84
94 -270 -13 -369 -49 -45 -43 -45 -200 -25 -108 13 -179 43 -245 104 -88 81
-136 108 -205 116 -22 3 -47 8 -55 10 -8 3 -69 7 -135 10 -129 4 -214 -10
-283 -45 -44 -23 -117 -97 -197 -201 -63 -81 -141 -167 -165 -180 -13 -7 -15
1 -15 48 -2 165 -40 272 -110 307 -34 17 -58 20 -145 19 -213 -3 -308 60 -313
206 -2 64 13 79 89 85 124 11 230 62 323 156 83 84 126 222 88 285 -48 83 -70
136 -83 198 -8 39 -20 85 -26 101 -29 76 -125 135 -258 158 -14 3 -60 10 -102
17 -43 7 -78 14 -78 15 0 1 11 35 25 76 37 108 62 140 143 182 38 20 77 48 86
62 36 54 26 135 -35 284 -57 138 -51 189 25 232 32 19 56 24 111 24 68 0 75
-3 180 -61 145 -80 207 -105 276 -111 88 -8 141 21 214 120 51 69 194 76 430
20 17 -4 59 -7 95 -7 89 -1 128 21 206 113 35 42 74 82 86 90 59 37 176 44
274 16z m667 -911 c54 -28 140 -90 174 -125 59 -62 77 -141 58 -254 -5 -27 -9
-79 -9 -115 -1 -58 3 -72 37 -126 20 -34 37 -72 37 -84 0 -58 -88 -138 -161
-147 -22 -3 -77 3 -125 12 -73 16 -91 17 -122 5 -97 -35 -133 -172 -74 -282
29 -55 60 -76 175 -117 45 -16 90 -32 100 -36 45 -18 38 -94 -12 -152 -29 -33
-88 -73 -109 -73 -25 0 -82 -46 -98 -80 -39 -79 -21 -160 56 -260 174 -225
220 -311 211 -398 -2 -24 -96 -58 -236 -88 -143 -29 -291 -103 -344 -170 -12
-15 -23 -25 -25 -23 -5 6 -35 132 -41 171 -19 125 -23 183 -23 343 0 230 -21
322 -86 387 l-27 27 29 28 c64 62 108 189 96 282 -9 75 -52 150 -114 200 -72
57 -84 85 -84 196 0 78 3 97 26 141 15 28 42 64 59 79 32 26 36 27 110 21 61
-6 85 -4 108 8 84 44 157 219 217 516 14 69 27 132 30 141 4 15 11 15 70 3 35
-8 79 -21 97 -30z m-2648 -259 c101 -20 162 -43 187 -72 9 -10 26 -57 37 -103
22 -95 41 -145 77 -201 31 -49 26 -86 -21 -154 -65 -95 -157 -148 -283 -164
-95 -12 -132 -28 -164 -73 -20 -29 -23 -45 -22 -118 1 -209 130 -310 394 -310
111 0 119 -1 132 -22 38 -59 49 -228 22 -331 -25 -96 -127 -228 -209 -269 -41
-22 -132 -28 -190 -14 -304 73 -484 30 -535 -128 -17 -53 -15 -173 4 -218 9
-20 34 -57 56 -83 49 -56 54 -107 17 -151 -22 -25 -30 -27 -98 -28 -131 -2
-166 29 -156 136 4 35 9 77 13 93 3 17 7 69 7 116 1 71 -3 93 -24 134 -13 27
-36 58 -50 68 -32 23 -101 26 -177 7 -39 -9 -57 -9 -65 -1 -6 6 -11 54 -11
119 -1 99 -3 112 -26 145 -50 74 -152 91 -255 43 -46 -21 -79 -51 -192 -176
-38 -41 -44 -44 -87 -43 -55 2 -94 23 -125 68 -33 49 -30 114 9 209 57 136
117 195 288 280 137 69 180 127 180 247 0 49 -9 89 -39 173 -22 61 -39 128
-39 151 0 62 21 76 128 86 116 11 163 30 198 81 41 58 40 147 -1 298 -20 75
-19 116 4 139 24 24 77 35 138 28 65 -7 95 -33 111 -97 18 -72 35 -94 90 -121
92 -44 250 -30 314 28 34 30 66 87 83 149 24 84 47 102 127 99 35 -1 104 -10
153 -20z m1222 -1150 c129 -12 163 -27 238 -99 94 -89 187 -125 370 -141 84
-8 119 -25 142 -68 31 -60 40 -131 41 -318 0 -101 3 -197 6 -214 2 -16 7 -50
11 -75 24 -164 94 -370 191 -566 63 -127 72 -178 44 -241 -34 -75 -75 -87
-256 -69 -97 9 -149 -6 -318 -91 -106 -54 -113 -56 -190 -56 -100 -1 -171 21
-215 67 -30 31 -34 43 -41 115 -14 139 -97 248 -215 285 -92 29 -160 7 -255
-86 -196 -188 -271 -219 -410 -170 -30 10 -81 19 -112 20 -51 0 -61 -4 -97
-35 -32 -27 -44 -47 -56 -91 -66 -247 -129 -299 -278 -236 -37 16 -67 33 -67
39 0 5 16 47 37 94 78 184 101 339 57 398 -41 55 -56 58 -231 37 -62 -8 -106
7 -132 45 -35 51 -34 60 9 71 84 23 133 90 134 185 0 67 -17 108 -70 167 -37
41 -49 88 -40 154 18 137 128 158 451 88 78 -17 192 5 264 51 70 44 175 175
209 260 9 21 26 35 58 49 61 25 139 99 233 220 132 170 172 200 278 214 64 8
107 8 210 -3z m-2403 -521 c18 -18 18 -19 18 -133 -1 -90 8 -124 40 -159 30
-31 77 -42 134 -30 67 15 122 14 136 0 19 -19 19 -153 1 -263 -14 -81 -14
-104 -3 -142 23 -85 116 -147 217 -147 23 0 33 -5 33 -15 0 -27 38 -92 70
-118 38 -33 100 -50 149 -43 126 20 138 20 165 -7 32 -32 34 -74 7 -178 -15
-57 -82 -231 -96 -247 -1 -1 -38 9 -81 24 -93 32 -192 36 -241 10 -49 -25 -90
-75 -120 -146 -34 -80 -55 -111 -94 -134 -38 -22 -129 -27 -213 -11 -115 21
-186 11 -234 -35 -23 -22 -24 -22 -85 -5 -132 37 -267 12 -346 -66 -52 -51
-76 -97 -91 -177 -7 -34 -16 -62 -19 -62 -4 0 -28 13 -53 29 -103 65 -143 178
-92 256 21 31 139 121 233 176 122 72 167 130 206 261 42 146 9 232 -122 317
l-51 33 44 43 c24 24 52 48 61 53 39 20 92 -1 198 -79 70 -51 108 -69 150 -69
79 0 161 70 186 157 15 56 15 159 -1 207 -22 68 -71 90 -249 110 -100 12 -117
54 -122 312 -2 100 1 125 15 145 32 46 111 122 141 135 41 18 90 17 109 -2z
m-745 -965 c20 -12 52 -31 71 -41 74 -42 156 -93 187 -116 70 -52 92 -126 66
-217 -36 -124 -67 -160 -198 -240 -136 -82 -218 -154 -251 -217 -48 -92 11
-240 122 -309 l36 -22 -46 -28 c-68 -43 -148 -130 -205 -227 -60 -102 -68
-112 -101 -133 -37 -24 -83 -32 -255 -44 -130 -9 -178 -22 -224 -61 -63 -55
-74 -88 -72 -234 1 -69 3 -145 4 -170 4 -58 -10 -100 -37 -109 -12 -5 -46 -2
-81 6 -235 56 -250 55 -343 -33 -50 -47 -89 -46 -145 4 -23 21 -53 46 -67 55
-27 19 -85 22 -123 8 -32 -13 -102 -85 -118 -122 -10 -25 -14 -27 -27 -17 -8
7 -23 30 -32 51 -23 50 -12 112 37 219 58 129 50 240 -24 334 l-31 39 24 48
c56 110 64 217 24 345 -26 84 -22 112 21 155 29 28 33 29 89 23 32 -4 98 -21
147 -37 118 -41 135 -44 228 -44 101 1 144 22 232 114 83 86 162 203 254 375
113 211 108 208 384 275 189 46 277 84 312 138 14 21 18 48 18 129 1 67 5 107
14 117 16 20 63 14 110 -14z m2968 -60 c44 -21 114 -101 127 -146 4 -12 8 -48
10 -81 7 -122 82 -196 227 -226 l59 -12 -66 -43 c-153 -101 -233 -215 -317
-456 -51 -144 -63 -169 -97 -204 -44 -44 -82 -51 -243 -44 -284 12 -344 9
-427 -21 -81 -30 -163 -73 -305 -157 -184 -110 -349 -193 -440 -224 -63 -21
-183 -22 -295 -1 -47 9 -129 24 -182 33 -95 17 -97 18 -94 43 6 45 17 58 83
101 94 62 126 110 125 190 -1 70 -50 129 -110 131 -15 0 -70 -2 -123 -5 -87
-6 -100 -4 -123 14 -30 24 -41 69 -28 124 12 54 -1 97 -44 142 -33 35 -34 38
-17 51 32 23 64 25 162 12 229 -33 306 1 377 165 41 95 48 103 100 127 73 32
152 15 343 -72 134 -62 182 -68 253 -31 83 42 121 108 168 289 8 31 20 48 43
62 35 22 66 20 155 -11 145 -51 249 -10 440 175 103 99 155 116 239 75z
m-2419 -822 c92 -32 144 -87 135 -142 -11 -70 -5 -122 18 -158 45 -68 91 -79
256 -63 69 6 72 6 92 -20 16 -20 20 -37 17 -59 -10 -60 -7 -57 -133 -145 -53
-37 -71 -64 -75 -115 -4 -36 -7 -40 -33 -42 -17 -1 -57 -7 -90 -13 -82 -15
-174 -18 -212 -8 -51 13 -80 61 -113 191 -33 131 -70 200 -140 260 -23 20 -55
39 -71 42 -16 4 -31 10 -33 13 -9 15 17 119 39 157 33 57 67 85 127 107 61 21
146 20 216 -5z m-2894 -436 c52 -26 79 -67 91 -141 18 -112 52 -146 173 -175
126 -30 192 -89 210 -187 8 -41 5 -55 -30 -137 -74 -173 -73 -265 5 -364 38
-48 39 -51 21 -64 -55 -40 -113 -25 -225 58 -88 65 -137 87 -184 83 -16 -2
-67 -5 -112 -6 -75 -3 -83 -1 -108 22 -15 14 -34 38 -42 55 -19 35 -25 142
-13 205 5 25 12 77 15 115 8 90 -10 122 -93 164 -152 77 -164 129 -44 190 70
36 122 86 163 158 l32 55 47 -4 c26 -3 68 -15 94 -27z"/>
<path d="M6069 6381 c-69 -22 -109 -59 -143 -131 -33 -71 -29 -186 10 -265 50
-102 207 -246 362 -331 l53 -29 52 29 c156 86 317 234 365 336 22 45 26 70 26
140 1 76 -3 91 -29 139 -16 29 -43 64 -60 76 -41 31 -106 49 -148 41 -48 -9
-123 -61 -167 -117 l-37 -48 -47 55 c-75 86 -167 127 -237 105z m134 -153 c29
-29 67 -79 85 -111 30 -53 35 -58 64 -55 26 3 37 13 70 68 51 87 120 150 162
150 42 0 73 -23 92 -68 44 -106 12 -195 -112 -312 -62 -59 -193 -150 -215
-150 -25 0 -155 95 -227 166 -42 43 -81 91 -93 118 -50 113 -2 246 88 246 28
0 44 -10 86 -52z"/>
</g>
</svg>
