<?xml version="1.0" encoding="UTF-8"?>
<svg width="99px" height="81px" viewBox="0 0 99 81" version="1.1" xmlns="http://www.w3.org/2000/svg" xmlns:xlink="http://www.w3.org/1999/xlink">
    <title>logo</title>
    <g id="Page-1" stroke="none" stroke-width="1" fill="none" fill-rule="evenodd">
        <g id="logo-with-text" fill="#176E32" fill-rule="nonzero">
            <g id="logo" transform="translate(-0.000603, -0.000605)">
                <g id="Group">
                    <path d="M37.1199441,34.4645082 C38.1412593,32.0167469 39.7842204,31.2412559 41.117851,30.6117537 C41.8291305,30.2760499 42.4290117,29.9928797 42.631159,29.5289333 C43.0547416,28.5566583 42.6813965,27.630176 42.3234195,26.7418761 C42.0898308,26.1621851 41.8615069,25.5956643 41.7911121,24.9791357 C41.7770397,24.8557479 41.7696591,24.7258816 41.7689374,24.5898812 C41.7653291,23.9145536 41.9679684,23.3656807 42.3594534,22.9541532 C42.7410976,22.5530241 43.280146,22.3085613 43.9601481,22.230917 C44.0993631,22.2150241 44.2561933,22.2065446 44.4303598,22.2056097 C45.9110454,22.1976714 46.3079921,21.7022999 46.3044002,21.0307938 C46.3015955,20.5049649 46.1205405,19.8289648 45.9405187,19.1568026 C45.8670404,18.88244 45.7936934,18.6085694 45.724135,18.3086042 C45.6102929,17.8176611 45.6201666,17.3839753 45.7254308,17.0058082 C45.8530008,16.5474875 46.1120774,16.1866566 46.4583273,15.9142786 C46.777351,15.6633372 47.1683767,15.4926314 47.5929106,15.3941738 C48.2904129,15.2324396 49.0966074,15.2687523 49.8070504,15.466504 C51.3280178,15.8898733 51.4856517,16.7465676 51.6318866,17.5414943 C51.6851255,17.8309626 51.7351826,18.1029634 51.9563555,18.196599 C52.4767227,18.4169026 53.1889699,18.5270216 53.8231301,18.383575 C54.2659023,18.283428 54.6643579,18.0510202 54.8999148,17.6285365 C55.0913519,17.2851896 55.1805099,16.911943 55.26109,16.5745006 C55.4966305,15.5882352 55.6837049,14.8059212 56.9359026,14.6185516 C57.0388214,14.0660868 57.193831,13.4718149 57.3973232,12.9135932 C57.7107047,12.0539302 58.1458667,11.2580195 58.6980034,10.7723084 C59.0215046,10.4877113 59.377169,10.3303727 59.719089,10.1791518 C60.0747862,10.0218132 60.4034538,9.87641474 60.3996651,9.57190635 C60.3922189,8.97366528 60.000045,8.03539038 59.6816774,7.27370935 C59.4840405,6.80082418 59.3116782,6.38847658 59.2399385,6.06681232 C59.1483531,5.65618687 59.1356092,5.27874144 59.187946,4.93514851 C59.2898151,4.26633221 59.6248465,3.72787425 60.1013236,3.32075869 C60.5456704,2.94106628 61.11329,2.68289184 61.7213227,2.54726866 C62.2919438,2.4200102 62.8997961,2.39922962 63.4721886,2.48640306 C64.0745464,2.5781525 64.7906151,2.98605532 65.5871819,3.43981646 C67.0771835,4.28860532 68.9204877,5.33862296 69.7881546,3.95081848 C71.1879157,1.71197815 74.0782032,2.3485821 76.5710192,2.89763537 C76.8716077,2.96386422 76.5061025,2.88418622 76.8103485,2.95082511 C78.2506702,3.26637165 78.7229321,2.6508599 79.2439062,1.97184194 C80.1399475,0.803980235 81.1357585,-0.493911765 84.6955676,0.190600671 C84.7494134,0.200949955 84.8163803,0.215858828 84.8960747,0.235163276 C86.2565873,0.564995433 87.3366031,1.53005382 88.0076992,2.74034594 C88.6678227,3.93084157 88.9365761,5.37013005 88.6859955,6.6733689 C88.6737108,6.73721955 88.6567354,6.8139125 88.6349543,6.90379217 C88.5678562,7.1805494 88.5040547,7.40767599 88.4422379,7.62776638 C88.1195731,8.77660245 87.8607918,9.69803312 89.4135124,10.5602055 C90.025137,10.8998293 90.7853419,11.0369942 91.5119239,11.1680742 C92.2914661,11.3087162 93.0377298,11.4433717 93.6775156,11.8059411 C95.1904792,12.6633407 96.2186337,13.4113757 96.8070996,14.4235225 C97.4106547,15.4615999 97.5127862,16.6926234 97.145198,18.4769646 C96.9629457,19.3616069 97.1119524,19.5875526 97.6145569,20.3497256 L97.6923159,20.4677337 C97.7507541,20.5565637 97.8022381,20.646755 97.8468991,20.7379468 C98.1719913,21.4015638 98.1442729,22.0982461 97.8446522,22.749923 C97.5743735,23.3377819 97.0769354,23.8819312 96.4225852,24.3123531 C96.2363801,24.4348388 96.0371358,24.5485005 95.8267715,24.6515505 C94.6914666,25.207722 93.7993616,24.9582895 92.8904452,24.7041334 C92.7463589,24.6638515 92.6016822,24.6233893 92.4419161,24.5840751 C92.2205956,24.5296225 92.0629454,24.5595386 91.959879,24.6410372 C91.8625367,24.718009 91.7871066,24.8438077 91.7344581,24.9958651 C91.670099,25.1817094 91.6435124,25.3986671 91.6534188,25.6193807 C91.6718048,26.0283824 91.8092485,26.41662 92.0563192,26.5801419 C92.5306805,26.8941139 93.2579186,27.1210601 94.0232571,27.3598645 L94.2559274,27.4326375 C94.8879389,27.6311929 95.3201814,27.9690781 95.5848508,28.3887407 C95.8635762,28.8307257 95.9426146,29.3381194 95.863609,29.8547635 C95.7924434,30.3201532 95.589312,30.7959906 95.2896256,31.231251 C94.7656665,31.9922432 93.9258,32.6462818 92.9746664,32.8984369 C92.8664992,32.9271066 92.7798506,32.9688645 92.7129001,33.020693 C92.604454,33.1046025 92.5363062,33.2302044 92.5038806,33.3781779 C92.4616634,33.5708123 92.4752438,33.7955607 92.5365358,34.0267877 C92.6075703,34.2947865 92.7400936,34.5639007 92.9233792,34.8007369 C93.0677608,34.9873028 93.1628561,35.1062458 93.2697112,35.2398844 C93.7946216,35.8963669 94.5418694,36.830935 95.130368,37.790991 C96.1751208,39.4953753 96.7407559,41.3041053 95.176948,42.2626851 C94.4160871,42.7290918 93.3824872,42.9511175 92.3681918,43.1689937 C91.7323916,43.3055682 91.104792,43.4403877 90.624477,43.6195894 C89.7853157,43.9326757 88.9858295,44.3545361 88.5078107,44.9457902 C88.0804394,45.4743909 87.9093892,46.180176 88.2219179,47.1354919 C88.5522093,47.8948768 88.9095466,48.621262 89.2784633,49.300854 C89.6485937,49.9827094 89.8557269,50.8450294 89.748183,51.6938511 C89.6547114,52.4316845 89.3307509,53.1555931 88.6831252,53.744797 C87.745572,54.5977846 86.3903407,54.4249466 85.1718315,54.2695598 C84.8765735,54.2319186 84.5909103,54.1954582 84.3187126,54.178778 C83.9221268,54.1544711 82.9646623,54.5845487 81.8495639,55.1722928 C80.6386157,55.8105533 79.3123985,56.6084322 78.2454874,57.2568288 C75.9717449,58.638696 75.2565126,60.7442093 74.6565658,62.5103613 C74.0760874,64.2192724 73.5878014,65.6566747 72.0207132,66.2063184 C71.5212577,66.3815018 70.572814,66.4172732 69.4895343,66.3865862 C68.4314308,66.3566372 67.2778875,66.272334 66.2986911,66.1941486 C64.6339654,66.0612316 62.6971732,67.2152669 60.5122115,68.5171937 C58.8367921,69.5154977 57.0239781,70.5956775 55.0106898,71.3069078 C53.2906258,71.9145305 51.3671516,71.5273919 49.519337,71.1554573 C48.1730937,70.8844898 46.8709373,70.6223954 45.8554119,70.8137669 C44.7233708,71.0270835 43.7085342,71.1754178 42.8554153,71.1249671 C41.8643771,71.0663813 41.0864587,70.7479645 40.590054,69.9954683 C40.0404266,69.16231 39.890239,68.4050573 39.7450046,67.6726528 C39.6572407,67.2300446 39.5715762,66.7981137 39.3916692,66.4107291 C39.1089091,65.8018927 38.8016945,65.3786709 38.4818672,65.1097864 C38.1080301,64.7955028 37.7036699,64.6981276 37.2978501,64.7595509 C36.8347402,64.8296505 36.3519978,65.0926469 35.8888878,65.4782274 C35.1578282,66.0868998 34.4939979,66.9854669 34.0198007,67.9356656 C32.9463454,70.0867093 32.2833352,70.1317639 28.9967734,70.3550526 C28.6874758,70.3760628 28.3509027,70.3989427 27.9366853,70.4295313 C26.0842128,70.5663682 26.1991866,72.2103954 26.3133076,73.8420887 C26.3394186,74.2156962 26.3655296,74.5887624 26.3735007,75.0005032 C26.3978896,76.2610328 25.9919221,76.9727715 25.3752787,77.336735 C24.7761027,77.6904312 24.0385974,77.6594654 23.3297617,77.4720466 C23.2596621,77.453513 23.1291889,77.4173643 22.9915976,77.3792474 C22.6034912,77.2717199 22.1420871,77.1438873 21.5877197,77.0456101 C20.8121467,76.9081172 20.6427695,77.0807255 20.3622891,77.3665691 C20.2750665,77.4554647 20.1814145,77.5508881 20.0792338,77.646295 C19.2616896,78.4095506 18.7302678,78.3623474 18.2278109,78.3177027 L18.2078832,78.3159314 L18.20767,78.3184736 C17.9081312,78.2920346 17.6173672,78.2280855 17.2863541,78.0489494 C16.9877666,77.8873628 16.6717937,77.6358801 16.3046155,77.2321269 C16.1723546,77.0866793 16.0528048,76.9936833 15.945064,76.9437739 C15.8483122,76.8989488 15.7589409,76.8927327 15.6775736,76.9142349 C15.5636167,76.9443479 15.443214,77.0233042 15.3235166,77.1321603 C15.037919,77.3918929 14.7934233,77.7885116 14.6191912,78.1645629 C13.3617287,80.8788798 11.7714325,80.9242953 10.3344895,80.2586116 C9.68225497,79.9564486 9.09672498,79.4988168 8.60296083,79.1129246 C8.29673029,78.8735954 8.03173287,78.6664785 7.87222925,78.591967 C7.54152782,78.4374822 7.06414866,78.510452 6.57638742,78.5850128 C5.86797815,78.6933112 5.14374152,78.8040043 4.37399101,78.4409757 C3.91097948,78.2226074 3.47832694,77.8692885 3.14090094,77.3997984 C2.83816389,76.9785776 2.6121198,76.4658863 2.51080835,75.8766824 C2.34077503,74.8877763 2.53664055,73.7236706 2.70408245,72.7284664 L2.75033439,72.4544318 C2.87665798,71.6886832 2.6296857,71.5734306 2.19837807,71.3721854 C1.84556756,71.2075646 1.42513406,71.011371 0.960105164,70.6588885 C0.541574234,70.3416198 0.281530034,69.950512 0.138854254,69.5641443 C-0.0501882846,69.0522894 -0.0290468797,68.5289535 0.104148891,68.1776027 C0.395716582,67.4085902 0.918527614,67.1528104 1.54207605,66.847728 C2.10069134,66.5744314 2.77749511,66.2432872 3.29833798,65.1791971 C3.55654522,64.6517281 3.8467844,64.205528 4.49272074,64.0009533 C5.03969104,63.8277381 5.79745213,63.8867012 6.97289127,64.3340986 C8.61888659,64.9606157 8.84009227,66.2899983 9.00371264,67.2735903 C9.04488016,67.5210874 9.08083203,67.7371103 9.12823207,67.8342066 C9.26201829,68.1083232 9.64563064,68.1787672 10.0293086,68.2492112 C10.2189416,68.284015 10.4086238,68.3188515 10.5915978,68.3701223 C10.9205443,68.4623146 11.2379606,68.5800274 11.5373517,68.7249174 C12.6182532,66.7883385 12.284944,65.795857 11.9514871,64.8035887 C11.8793209,64.5888615 11.8071548,64.3741508 11.7549327,64.1924233 C11.7241145,64.0851745 11.7027599,63.9688558 11.6902948,63.8452056 C11.6322174,63.268844 11.819587,62.6446395 12.1596865,62.1320138 C12.5023281,61.6155173 13.0098858,61.1941981 13.5894949,61.0276255 C13.6993679,60.9960528 13.81795,60.9733205 13.9450937,60.960511 C14.4871764,60.9058943 15.078086,60.9873273 15.685151,61.1395487 C16.2568382,61.2828805 16.8428767,61.487816 17.413301,61.6971143 C18.6526728,62.1518923 19.4625575,62.1926662 20.0943722,61.9317363 L20.093995,61.9308506 C20.7451962,61.6610148 21.300892,61.0386636 21.970184,60.2035535 C23.092171,58.803612 23.7616105,57.50531 24.3120907,56.4376773 C24.8993264,55.2987476 25.3628464,54.3998525 26.1230185,53.801349 C26.9197493,53.174061 27.8868251,52.9604328 29.1225394,52.6874643 C29.8834659,52.5193828 30.7569061,52.3264203 31.7587036,51.9864029 C32.5043113,51.7333293 32.8651749,51.5399239 32.9946147,51.3228842 C33.1063575,51.1355146 33.0774582,50.7840162 33.0153953,50.2571048 C32.9466734,49.6736906 32.9775245,49.1905054 33.0910386,48.7990203 C33.2037162,48.4104384 33.3961866,48.1104404 33.6549187,47.8912028 C33.9191453,47.6673073 34.2374472,47.5390484 34.597868,47.4966016 C34.9525319,47.4548436 35.350151,47.501522 35.7757018,47.6248933 C36.1625616,47.7370461 36.485866,47.9538562 36.8350354,48.1880026 L36.9800074,48.2839508 C37.3824977,48.5503095 37.6170542,48.6266908 37.7707681,48.5791268 C37.9539553,48.5224435 38.1715363,48.2824747 38.4458169,47.9601707 C40.0207614,46.1094039 41.5602788,47.2873853 43.3675983,48.670335 L43.5497194,48.8095664 C43.783341,48.9878169 44.0056947,49.0695122 44.2049226,49.0726941 C44.341907,49.0748755 44.4760541,49.0389892 44.6010328,48.9716943 C44.7389029,48.8974452 44.8663746,48.7842427 44.9765428,48.6398448 C45.2136415,48.3291202 45.3633206,47.8894315 45.3714393,47.3810209 C45.3938929,45.9783896 44.8319809,45.9226084 43.6772895,45.8080282 C43.4237567,45.7828685 43.1486888,45.7555601 42.8209232,45.7131625 C40.630385,45.4297791 40.5989599,43.122873 40.567338,40.8000903 C40.5631885,40.4955327 40.5590389,40.1906471 40.5492965,39.8927648 C40.0088867,40.0671937 39.4281624,40.0546302 38.8800768,39.8956351 C38.3189849,39.7328676 37.7902037,39.4137291 37.3785614,38.9849637 C37.0817945,38.6758629 36.8435149,38.311145 36.6938685,37.9075722 C36.4588037,37.2736252 36.4662335,36.6440903 36.5916386,36.0338762 C36.7074489,35.4702585 36.9167308,34.9514986 37.1199441,34.4645082 L37.1199441,34.4645082 Z M79.9714231,13.9211476 C79.9040626,14.0558523 79.8056378,14.1542771 79.6709331,14.2216377 C79.6610594,14.2264433 79.6510874,14.2310193 79.6409841,14.2353165 L79.6122489,14.2468138 C79.5470205,14.2711863 79.4800208,14.2844387 79.4134639,14.2874073 C79.3937002,14.288211 79.3744122,14.288211 79.3546485,14.2874073 C79.2880916,14.2844387 79.2210919,14.2711863 79.1558635,14.2468138 L79.1271282,14.2353165 C79.117025,14.2310193 79.1070529,14.2264433 79.0971793,14.2216377 C78.9563241,14.1512101 78.8565051,14.0478813 78.7893578,13.9056155 C78.5689558,13.4229879 78.2518675,12.8964702 77.8790145,12.444874 C77.5785572,12.0809433 77.2468061,11.7724166 76.9111515,11.5913123 C76.6345091,11.4420596 76.3665594,11.4218859 76.1316421,11.4979228 C75.903433,11.5717783 75.6911169,11.7356447 75.5163272,11.9624924 C75.3243652,12.2116461 75.1825259,12.5322115 75.1146405,12.8945512 C74.9928601,13.5446371 75.1149685,14.3171923 75.6144404,15.0504496 C76.0199158,15.6456729 76.5809585,16.2099958 77.2058026,16.7234909 C77.8921684,17.2875514 78.6576874,17.7912876 79.3840562,18.2099006 C80.1104578,17.7912712 80.8759767,17.287535 81.5623425,16.7235073 C82.1871867,16.2100122 82.7482458,15.6456729 83.1537212,15.0504496 C83.653193,14.3171923 83.7753015,13.5446371 83.6535211,12.8945512 C83.5856357,12.5322115 83.4437964,12.2116461 83.2518344,11.9624924 C83.0770446,11.7356447 82.8647121,11.5717783 82.636503,11.4979228 C82.4015858,11.4218859 82.1336197,11.4420596 81.8569937,11.5913123 C81.5213554,11.7724166 81.1896207,12.0809269 80.8891307,12.444874 C80.5162776,12.8964702 80.199173,13.4230043 79.9787545,13.9056155 L79.9714231,13.9211476 L79.9714231,13.9211476 Z M79.3840726,12.2892083 C79.5366548,12.0563248 79.7027682,11.8285094 79.8794277,11.6145367 C80.2821148,11.1268083 80.7443391,10.7038326 81.2368239,10.4380971 C81.8514992,10.1064608 82.4725054,10.0699185 83.0363036,10.2524332 C83.5234088,10.4100999 83.9542079,10.7307637 84.2871892,11.1629242 C84.6029817,11.5728116 84.8336674,12.085995 84.9400141,12.6536474 C85.119839,13.6136542 84.9493465,14.740086 84.2351967,15.7885127 C83.7572927,16.4900826 83.1089618,17.144564 82.3926798,17.7332103 C81.5294741,18.4425872 80.5705991,19.0548679 79.6992747,19.5358062 C79.4921906,19.6495171 79.2504996,19.6394794 79.0592429,19.5304921 C78.1904935,19.0503575 77.2354892,18.4399794 76.3754653,17.7331939 C75.659167,17.1445476 75.0108688,16.4900826 74.5329648,15.7885127 C73.8187987,14.740086 73.6482897,13.6136378 73.8281475,12.6536474 C73.9344942,12.085995 74.1651798,11.5728116 74.4809724,11.1629242 C74.8139536,10.7307637 75.24472,10.4100999 75.7318416,10.2524332 C76.2956233,10.0699349 76.9166295,10.1064444 77.5313212,10.4380971 C78.0238225,10.7038326 78.4860467,11.1268083 78.8887175,11.6145367 C79.065377,11.8285094 79.2314904,12.0563248 79.3840726,12.2892083 L79.3840726,12.2892083 Z M83.9819427,32.378939 C84.4902057,32.1668361 84.9056532,31.7813048 85.2070617,31.3057298 C85.4174424,30.9737982 85.5725669,30.5980421 85.6657432,30.2055566 C85.7595265,29.8105125 85.7906235,29.4024293 85.752359,29.0086481 C85.6734191,28.1964343 85.2988767,27.4353273 84.569326,26.9729227 C84.3645874,26.8431384 84.1625221,26.7056783 83.975579,26.5261977 C83.7780077,26.3364827 83.6100081,26.1088805 83.4959036,25.8124252 C83.2943304,25.2887449 83.081063,24.3527006 83.20965,23.312819 C83.2992016,22.5885988 83.551816,21.8104015 84.0834182,21.0767177 C84.5208763,20.4729494 84.9798859,20.1887131 85.487296,20.0847446 C85.9702188,19.985795 86.4567172,20.0617171 87.0022277,20.1776258 C88.2808317,20.4492821 89.1008689,17.4195335 89.6662908,14.7582587 C89.7787552,14.2289199 89.8860203,13.6837374 89.9846091,13.1827074 C90.0516417,12.8420175 90.114623,12.5218786 90.1750786,12.2298353 C89.6997988,12.1117944 89.2275697,11.952832 88.7779581,11.7031863 C86.3206348,10.3387046 86.7037223,8.97474777 87.1813638,7.27411939 C87.2465922,7.04187556 87.3138871,6.80231671 87.3638458,6.59626592 C87.3740967,6.55398311 87.3860205,6.49746389 87.3995025,6.4273479 C87.5924977,5.42363141 87.3808049,4.30663046 86.8647184,3.3759002 C86.3595881,2.46493363 85.5675317,1.74361645 84.5885485,1.50627179 C84.5561557,1.49843192 84.5099038,1.48870589 84.4495466,1.4770937 C81.6818431,0.944901066 80.9462567,1.90362851 80.2843782,2.76629296 C79.4962254,3.79354545 78.7817476,4.72473495 76.5335584,4.2322009 L76.2891448,4.17883074 C76.3035124,4.18217663 76.3581291,4.19421526 76.289112,4.17901116 C74.2137608,3.72190414 71.8074622,3.19190929 70.9003663,4.64276075 C69.3654249,7.09780434 66.9189428,5.70422657 64.9413604,4.57767999 C64.2585537,4.18872079 63.6447641,3.83907574 63.2774056,3.78313056 C62.8540198,3.71864026 62.4116413,3.73241743 62.00323,3.82349441 C61.5985418,3.91376772 61.2294119,4.07819175 60.9521627,4.31510998 C60.7070437,4.52455586 60.5354031,4.7968191 60.4846735,5.12993154 C60.4547574,5.32638751 60.4625809,5.54467375 60.5161642,5.78490505 C60.5587259,5.97575175 60.7136371,6.34637419 60.8912807,6.77140007 C61.2518162,7.63398251 61.6959498,8.69656362 61.7066599,9.55652184 C61.7212571,10.7264173 61.0132743,11.0395692 60.2470173,11.3785206 C59.9973223,11.4889512 59.7375898,11.6038594 59.5641942,11.7563924 C59.1901274,12.0854537 58.8722683,12.6878444 58.6274282,13.3595145 C58.4774046,13.7710584 58.357576,14.2011687 58.2698285,14.6104657 C58.5524082,14.6364127 58.8638052,14.6771046 59.208415,14.7342307 L59.2442028,14.740168 C60.9519494,15.0231905 62.1797583,15.2266991 63.0709119,16.0119489 L63.0707807,16.0120965 C63.711813,16.4954622 63.8317073,17.1261781 63.9843879,17.9298303 C64.1151563,18.6182462 64.2778746,19.474793 64.9454116,20.4154789 C65.1837895,20.7513959 65.292498,21.1409784 65.2900214,21.5596405 C65.2864295,22.1673288 65.0400476,22.8356203 64.6186793,23.4671726 C64.223832,24.0589351 63.6680213,24.6323609 63.0146879,25.096012 C62.0979153,25.7466064 60.9781753,26.190215 59.8212861,26.1833593 C59.5148752,26.1815387 59.2089398,26.2220994 59.0273107,26.3759445 C58.8572446,26.5200144 58.7599351,26.8176834 58.8162575,27.3734449 C58.8841593,28.043196 59.0320671,28.5152775 59.3151553,28.8535072 C59.6041316,29.1987567 60.0653389,29.4486156 60.7552967,29.6685256 C61.4537503,29.8911418 62.2037371,29.8541894 62.8392422,29.8228956 C63.7023166,29.7803831 64.4059203,29.7457434 64.9219084,30.2545968 C65.5592832,30.8832297 65.8957251,32.1335576 65.9474551,33.4322861 C65.9633317,33.8310205 65.9531464,34.2388086 65.9174077,34.6377562 C66.7527475,34.150733 67.4453786,33.2360269 68.1433074,32.3141698 C68.7285585,31.5411062 69.3172376,30.7635651 70.0392272,30.1457407 C70.8253463,29.4730701 71.9326213,29.1970181 73.1708614,29.1468791 C74.323847,29.1001843 75.5973337,29.2484201 76.8153837,29.4444333 C77.7362895,29.5926363 78.5282967,30.3238107 79.2533534,30.9931519 C79.4741655,31.1970049 79.1539281,30.905306 79.4286188,31.1569035 C79.8969116,31.5858985 80.4925776,31.8434497 81.1472887,32.0067584 C81.8487274,32.1817121 82.6253337,32.2501552 83.3936409,32.2996874 C83.6038412,32.313235 83.7993623,32.3401825 83.9819427,32.378939 L83.9819427,32.378939 Z M90.976369,12.3990157 C90.9175044,12.6848101 90.8550807,13.0020624 90.7886714,13.3396688 C90.6930184,13.8258063 90.5889843,14.354571 90.4671383,14.928046 C89.8226125,17.9615998 88.8181908,21.4003829 86.8324404,20.9784733 C86.3792698,20.8821971 85.9842912,20.8172312 85.650654,20.8855922 C85.3414548,20.9489344 85.0486078,21.1402895 84.7465268,21.5572131 C84.3069856,22.1638517 84.0978022,22.8097881 84.0233234,23.4121131 C83.9136145,24.2994288 84.0904544,25.0848427 84.2583063,25.5209067 C84.3226982,25.6882174 84.4228451,25.8218068 84.5425754,25.9367642 C84.6729337,26.0619233 84.8375053,26.1727804 85.0081947,26.2809804 C85.9710389,26.8912437 86.4639174,27.8810846 86.5660325,28.9317583 C86.6134325,29.4194047 86.5765294,29.9179745 86.4633761,30.3945664 C86.349616,30.8736841 86.1587857,31.3347274 85.899004,31.7445984 C85.645914,32.1439069 85.3275956,32.4946181 84.9511506,32.7675373 C86.5329509,33.7976765 86.4666564,36.3488487 86.3977377,39.0037925 L86.3976393,39.0075321 C86.3556517,40.626219 86.620928,42.3014745 87.0731966,43.9242126 C87.1248938,44.1097124 87.1790512,44.2944742 87.2354392,44.4783503 C87.3120338,44.3563239 87.3963862,44.2388242 87.4878404,44.1257202 C88.139222,43.3200342 89.1391826,42.7785584 90.1683212,42.3946016 C90.7544581,42.1759217 91.4211586,42.0327047 92.0965518,41.8876179 C93.0022208,41.6930809 93.9251111,41.4948208 94.495273,41.1453234 C95.1661887,40.7340746 94.7021111,39.5968344 94.0130062,38.472666 C93.454637,37.561765 92.7469002,36.6766143 92.2497409,36.0548372 C92.0855301,35.8494753 91.9399677,35.6674361 91.8880244,35.6003052 C91.5968012,35.2239915 91.3852395,34.7926182 91.2705445,34.3599329 C91.1569812,33.9315447 91.1359382,33.49635 91.2225048,33.1013878 C91.318863,32.6617647 91.5429882,32.2719362 91.9133318,31.9853382 C92.1158399,31.82859 92.3578589,31.7076461 92.6415212,31.6324456 C93.2803065,31.4631012 93.851354,31.0137192 94.2132673,30.4880708 C94.4004073,30.2162831 94.5256484,29.9296031 94.5668815,29.6599805 C94.6002748,29.4415958 94.5758039,29.2412855 94.4777563,29.0858002 C94.3743291,28.9218026 94.1776107,28.781013 93.8663941,28.6832443 L93.6337239,28.6104713 C92.7780792,28.3434893 91.9650454,28.089776 91.3336407,27.6718519 C90.7172269,27.2638507 90.3819823,26.4669559 90.346424,25.6757687 C90.3295142,25.299455 90.3797517,24.9154982 90.4992359,24.5704456 C90.6304307,24.191606 90.8459779,23.8563778 91.1500434,23.6159497 C91.5597504,23.2919892 92.0952725,23.1507404 92.7545596,23.3129666 C92.9083883,23.350821 93.0739769,23.3971222 93.238975,23.4432593 C93.9086277,23.6305141 94.5659138,23.8142918 95.2527225,23.4778335 C95.4136366,23.3990157 95.5648739,23.3128354 95.7050239,23.2206431 C96.1553571,22.9244174 96.4879611,22.5711149 96.6555506,22.2066102 C96.7938144,21.9058905 96.8118724,21.5951004 96.6731821,21.3119958 C96.6524344,21.2696146 96.6282423,21.2273154 96.6006059,21.185295 L96.5228469,21.0672869 C95.7902292,19.9563217 95.5730418,19.6269815 95.8638222,18.2155591 C96.1613436,16.7713338 96.104234,15.8188716 95.6743861,15.0795785 C95.2294817,14.314322 94.3500714,13.6909376 93.0316941,12.9438046 C92.5827549,12.6893861 91.9462166,12.5745271 91.2812874,12.4545672 C91.1801564,12.4363125 91.0784513,12.4179757 90.976369,12.3990157 L90.976369,12.3990157 Z M56.0332515,55.6570362 C56.4429257,54.813709 57.2429204,53.0937598 57.4692105,51.7086779 C57.6599752,50.5411771 57.3553684,49.647514 55.682852,50.1113128 C55.5230532,50.1556294 55.357153,50.1881205 55.1894159,50.2066049 C54.6524341,50.2658304 54.0720213,50.1893506 53.5699088,49.9120522 C53.0567418,49.6286524 52.6319948,49.1450079 52.4246647,48.3973993 C52.3925671,48.2816382 52.3658492,48.1605138 52.3450359,48.0339114 C52.087009,48.0361584 51.8353296,48.0217252 51.5941142,47.9892832 C51.0085842,47.9105401 50.4813448,47.7232689 50.0638799,47.4097397 C49.6088723,47.0680002 49.2951955,46.5944589 49.1848469,45.9714026 C49.1344126,45.6866414 49.1293445,45.369504 49.1765806,45.0183336 C49.2038233,44.8157599 49.2378398,44.6181394 49.2761863,44.3953756 C49.4319832,43.4901331 49.6620948,42.1532222 49.413958,41.3716627 C49.2830421,40.9592659 48.9095166,40.7389787 48.0585791,41.0091425 C46.7015437,41.4400237 45.9793572,41.0842773 45.6071439,40.3296817 C45.3096389,39.726553 45.3448527,38.9043344 45.4388819,38.0862162 C45.4799346,37.7289773 45.4453933,37.4619625 45.3576458,37.2720343 C45.302045,37.1516808 45.2232363,37.0625884 45.1294859,37.001444 C45.0234672,36.9323285 44.8903207,36.8906197 44.7416748,36.8735459 C44.4402334,36.8389225 44.0959681,36.9065619 43.7748286,37.0549618 C43.1397008,37.348432 42.5990451,38.0259411 42.1617837,38.5738954 C42.0390521,38.7276914 41.9232746,38.8727946 41.8096621,39.0050226 C41.8578494,39.573856 41.8660993,40.1798877 41.8743328,40.7847058 C41.8981968,42.5378022 41.9219461,44.2789257 42.9849372,44.416435 C43.2599067,44.4519932 43.5438149,44.4801873 43.8054172,44.5061507 C45.7660406,44.7007205 46.7201593,44.7954386 46.6784341,47.4015226 C46.665641,48.2011729 46.4148964,48.9128461 46.0170149,49.4342958 C45.7942838,49.7262079 45.5243004,49.9616828 45.2212025,50.1249095 C44.9052131,50.2950741 44.5546988,50.3855934 44.1844208,50.3796889 C43.7125361,50.3721278 43.2238892,50.207589 42.7552684,49.8500385 L42.5731472,49.710807 C41.2966591,48.734038 40.2092954,47.9020278 39.4401682,48.8058597 C39.1099588,49.1938841 38.819326,49.5081185 38.460775,49.701245 C40.2811336,50.7482284 41.4908517,51.6596214 40.6693219,54.2089074 C40.4938105,54.7535651 40.2950092,55.2692579 40.0087391,55.7327451 C39.7106929,56.2153071 39.3245055,56.6321651 38.7853587,56.9516315 L38.6131932,57.0535334 C37.1041988,57.9461304 34.9806111,59.2022973 34.9079037,60.2430481 C34.8460376,61.1282809 35.2122317,61.8216009 35.8213305,62.371343 C36.1795206,62.6946474 36.6205051,62.9719131 37.1100705,63.2116852 C37.2291118,61.1273132 38.2012392,59.9579426 39.4388397,59.4226501 C40.2433612,59.0746616 41.1527532,59.004808 42.0056096,59.1306396 C42.5239102,59.2071029 43.0249238,59.3563884 43.4714847,59.5597986 C44.4073978,58.367876 45.6792116,58.6225734 46.7564392,58.8386946 L46.7567508,58.8371529 C47.0321467,58.8923928 47.2927322,58.9446805 47.5045398,58.9598518 C49.734753,59.1196834 50.118267,58.1035839 50.4708151,57.1693929 C50.5116546,57.0611765 50.552166,56.9538621 50.5970074,56.8425294 C51.5959183,54.3624409 53.7385972,54.7282577 55.7002539,55.518346 C55.8123903,55.563499 55.9234442,55.6098986 56.0332515,55.6570362 L56.0332515,55.6570362 Z M53.1652863,47.9742267 C53.1788503,48.0463273 53.1947104,48.1147375 53.2126863,48.1795559 C53.3537056,48.6880649 53.6314961,49.0108936 53.9639361,49.1944909 C54.3074306,49.3841895 54.7158419,49.4352799 55.099733,49.3929315 C55.2275163,49.3788591 55.350248,49.3551262 55.4650086,49.3232911 C58.097663,48.593232 58.5769283,50.0010462 58.2764546,51.8400204 C58.0346324,53.3201319 57.2082642,55.1058344 56.7779079,55.9930025 C56.9126782,56.0560659 57.0445783,56.1186044 57.1731488,56.1795684 C57.456073,56.3137319 57.722973,56.4402687 57.9513297,56.5403336 C58.1602179,56.6318698 58.3555258,56.6925714 58.5376305,56.7253086 C59.0232104,56.8125805 59.4349839,56.7016086 59.7766251,56.4502571 C60.1449677,56.1792896 60.4449658,55.7442917 60.6783413,55.2117054 C60.8805049,54.7503668 61.030709,54.2214217 61.1310035,53.663364 C61.1728435,53.4305625 61.2335615,53.2241673 61.3104512,53.0419806 C61.5391524,52.5000127 61.9038047,52.1729196 62.3423617,52.0027222 C62.7568743,51.8418573 63.2256919,51.8318197 63.6970846,51.9165329 C64.0300986,51.9763816 64.3654909,52.0837944 64.6823003,52.2174822 C66.5544217,53.007472 67.9232498,51.6695934 69.4929458,50.1353572 C69.6396235,49.992009 69.7879906,49.8469878 69.9333398,49.706805 C70.6983339,48.9689717 71.5037082,48.7238035 72.2623386,48.7968554 C72.667896,48.8358907 73.0536406,48.9659866 73.40796,49.1603104 C73.7528979,49.3495005 74.0700681,49.6009012 74.3474978,49.8885326 C75.1094085,50.6784732 75.5748802,51.765394 75.4944477,52.6007501 C75.4510332,53.0517066 75.5577407,53.4245924 75.7664813,53.7249513 C75.984456,54.0385952 76.3182573,54.2838126 76.7141214,54.4639492 C77.1336201,54.6548451 77.615362,54.7711638 78.1034841,54.8181538 C78.9320008,54.8979302 79.7686034,54.7846457 80.3433741,54.5026073 C80.4088321,54.4658845 80.4741096,54.4294734 80.5392068,54.3933575 C80.5599546,54.3801872 80.5802595,54.3667709 80.6000068,54.3530429 L80.6033363,54.3578321 C80.8187523,54.2388071 81.0315604,54.1235873 81.2396286,54.0139275 C82.5405056,53.328267 83.7241783,52.8306321 84.3956024,52.8717832 C84.6805603,52.8892343 85.0027986,52.930369 85.3358455,52.9728323 C86.2698888,53.0919392 87.3087699,53.2244297 87.80155,52.7760975 C88.1972502,52.4160867 88.3948706,51.9764964 88.4514555,51.5298371 C88.5227031,50.9674823 88.3814379,50.3886769 88.1303652,49.9261738 C87.2214161,48.2517712 86.3788269,46.3054007 85.8123226,44.2727423 C85.3285469,42.5369494 85.0450651,40.7342879 85.0906445,38.976763 L85.090743,38.9730235 C85.1605145,36.2856705 85.2268418,33.7301683 83.3116339,33.6066822 C82.4811326,33.5531316 81.635624,33.4776524 80.8346452,33.2778669 C79.9868732,33.0663873 79.1995076,32.7181855 78.5470435,32.1204857 L78.3672186,31.9561273 L78.3667265,31.9566685 C78.3855717,31.9742016 78.4033837,31.9906358 78.3666609,31.9567341 C77.7784903,31.4137658 77.1359983,30.8206255 76.6103662,30.7360435 C75.4628094,30.5513638 74.2719202,30.4113614 73.2221321,30.4538738 C72.2575986,30.492942 71.4235382,30.6836082 70.8900663,31.140092 C70.2803442,31.661837 69.7330295,32.3847451 69.1888966,33.1035036 C68.1851637,34.4292944 67.1908124,35.7423577 65.6308425,36.1705819 C65.5326473,36.4915737 65.412425,36.7832562 65.2704545,37.0306713 C64.5992436,38.2003207 63.8343315,39.1915722 62.8720942,39.8210907 C61.8606034,40.4828544 60.6673359,40.735928 59.196524,40.373129 C57.9886429,40.0751812 56.5431711,39.8004741 55.4401933,39.9881062 C54.5392644,40.1413608 53.8740564,40.6660908 53.8729411,41.9144342 C53.8720554,42.9246129 54.1915219,43.2633182 54.4981953,43.5884267 C54.7777243,43.8847508 55.0504632,44.1738911 55.2301406,44.7085111 C55.2687495,44.823403 55.2978948,44.9368678 55.317478,45.0473313 C55.4072757,45.5543806 55.3422277,46.1371387 55.1095739,46.6427119 C54.8639793,47.1764462 54.4344758,47.6296005 53.8048425,47.841195 C53.6951335,47.8780653 53.5862118,47.9065054 53.4786678,47.9255474 C53.3740597,47.944081 53.2695172,47.9603183 53.1652863,47.9742267 L53.1652863,47.9742267 Z M46.5757942,69.4397396 C46.5476165,68.0472444 47.0041659,67.7759324 47.8310589,67.2851041 C48.0678295,67.1445605 48.342225,66.9816946 48.6410257,66.7541744 C48.9638052,66.5084158 49.1518965,66.1563105 49.212106,65.803254 C49.249616,65.5832292 49.2376266,65.3667963 49.1777451,65.1798532 C49.1230792,65.009213 49.0296076,64.8646347 48.8993969,64.7696706 C48.7580004,64.6665386 48.5611672,64.6154154 48.3078804,64.6444295 C48.1850667,64.6584855 48.1182474,64.6674406 48.0441459,64.6773143 C47.6176275,64.7342271 47.0305394,64.8125766 46.1555903,64.8074102 C45.9308911,64.8060981 45.7227737,64.7640777 45.5335836,64.6897137 C45.1421806,64.5358358 44.8285366,64.245859 44.6148427,63.8930157 C44.4072666,63.5502429 44.2936377,63.1449643 44.2959667,62.7485588 C44.2973608,62.5127723 44.3382331,62.280266 44.4228316,62.0650469 C44.6140555,61.5786305 44.3136474,61.0710892 43.7684157,60.6716823 C43.279572,60.3135905 42.6069833,60.0473138 41.8870931,59.9410983 C41.1701223,59.8353257 40.4156743,59.88968 39.7623737,60.1722597 C38.7547045,60.6081105 37.9703731,61.6128111 37.9176098,63.4565745 C38.4024352,63.5265428 38.8757468,63.7347914 39.3224389,64.1103179 C39.7877959,64.5015405 40.2146587,65.0739657 40.5807708,65.862299 C40.8277594,66.3941144 40.9283984,66.901541 41.0314976,67.4215145 C41.152868,68.0335984 41.2783879,68.6664464 41.681764,69.277907 C41.9141718,69.6302091 42.3493501,69.783513 42.9323051,69.8179723 C43.6532123,69.8605996 44.5735276,69.7234347 45.6145081,69.5272739 C45.9253146,69.4687045 46.2463556,69.4421342 46.5757942,69.4397396 L46.5757942,69.4397396 Z M44.2040369,59.9771814 C44.2202087,59.988646 44.2362656,60.0001598 44.2521258,60.0117884 C45.0945509,60.6288911 45.5341576,61.4754493 45.1852342,62.3629619 C45.1369485,62.485792 45.1136093,62.6180693 45.1128221,62.7517735 C45.1113623,63.0003695 45.1827576,63.254788 45.3131816,63.4701548 C45.4375042,63.6754347 45.6148853,63.842155 45.8314986,63.927311 C45.9332201,63.9672977 46.0428963,63.9898824 46.158805,63.9905548 C46.9753159,63.9953769 47.5331603,63.9209309 47.9384225,63.8668555 C48.0608425,63.8505361 48.1731265,63.8355452 48.2149829,63.830756 C48.687048,63.7766642 49.0776965,63.8893582 49.3798923,64.1097766 C49.6576993,64.3123831 49.8506289,64.6005885 49.9561555,64.9299942 C50.0564665,65.2431134 50.0784936,65.5941197 50.0193501,65.940993 C49.9269446,66.4828296 49.6366235,67.0244858 49.1375617,67.4044571 C48.7975934,67.663304 48.502319,67.8385693 48.2474905,67.9898395 C47.6900069,68.3207541 47.3802336,68.504745 47.3975699,69.4779713 C48.1621704,69.5493666 48.9615254,69.7102315 49.7756253,69.8740815 C51.4482401,70.2107531 53.1893307,70.5611854 54.5750358,70.0716856 C56.4739244,69.4008847 58.2236585,68.3582805 59.840771,67.3947147 C62.218974,65.9776501 64.327046,64.7215488 66.4011998,64.8871538 C67.3985034,64.966799 68.5575575,65.0521847 69.5254206,65.0795914 C70.468091,65.1062929 71.2591798,65.0871853 71.5901764,64.9710962 C72.5521513,64.6336865 72.9469002,63.4716309 73.4161935,62.090059 C74.0853378,60.1201688 74.8830855,57.7718 77.5689296,56.139467 C77.8235614,55.9847198 78.0923475,55.8218047 78.369974,55.6549532 C78.255443,55.6504921 78.1408136,55.6428326 78.0265943,55.6318273 C77.4467392,55.5759969 76.8739531,55.4376019 76.3745469,55.2103441 C75.8514734,54.972327 75.401747,54.6358358 75.0937615,54.1926536 C74.7788546,53.7395321 74.617104,53.1851648 74.6807743,52.5238603 C74.7394749,51.9141383 74.3650801,51.0848835 73.7580643,50.455529 C73.5371866,50.2265162 73.285868,50.027026 73.0139328,49.8778717 C72.751412,49.7338838 72.4718337,49.6380996 72.1854488,49.6105288 C71.6520753,49.559176 71.0722694,49.7446103 70.5003362,50.2962386 C70.3492465,50.441965 70.2054226,50.5825414 70.0631569,50.7215761 C68.2869344,52.4576807 66.738019,53.9715627 64.3651628,52.9702736 C64.0999522,52.8583669 63.8229325,52.7691105 63.5529163,52.7205951 C63.2194922,52.6606808 62.9000093,52.6630754 62.6370621,52.7651249 C62.3982249,52.8578092 62.1961761,53.0441128 62.0632427,53.359118 C62.0092657,53.4870162 61.9659332,53.6358097 61.9350658,53.8075323 C61.823405,54.4287682 61.6551923,55.0198746 61.4279509,55.5384541 C61.1387614,56.1983972 60.7517211,56.7486478 60.2603352,57.1101511 C59.7422478,57.4913032 59.1214712,57.6602212 58.3934622,57.5293709 C58.1466704,57.4850051 57.8902509,57.4063604 57.624581,57.2899432 C57.3677679,57.1774132 57.1037381,57.0522377 56.823963,56.9195668 C56.3760572,56.7072015 55.8872791,56.4754661 55.3959423,56.2775668 C53.8121739,55.6396835 52.0940616,55.3149358 51.3562283,57.146841 C51.3170125,57.2441997 51.2768947,57.3504972 51.2364324,57.4576967 C50.7804571,58.6659387 50.2844788,59.9800845 47.4468725,59.7767071 C47.1747569,59.7572222 46.8936861,59.7008014 46.5965747,59.6412151 L46.5965747,59.6396078 C45.8014841,59.4801042 44.8701469,59.2934727 44.2040369,59.9771814 L44.2040369,59.9771814 Z M36.2856049,63.7001353 C35.9125386,63.4867366 35.570553,63.2480799 35.2735565,62.979999 C34.483583,62.2669973 34.0092546,61.359147 34.0910483,60.1885955 C34.1938851,58.7166026 36.5339385,57.33239 38.1967616,56.3487981 L38.3689271,56.2468962 C38.7837021,56.0011212 39.0821584,55.6782596 39.313615,55.3034876 C39.5568642,54.9096736 39.7326052,54.4502868 39.8909115,53.9590485 C40.5752107,51.8356084 39.3304264,51.1313651 37.6010136,50.1529395 C37.3099871,49.9883023 37.0069877,49.8168584 36.7198648,49.6456934 C36.573269,49.5726088 36.4195715,49.4830407 36.2573289,49.3756608 C36.2162762,49.3484837 36.205238,49.3403322 36.1072069,49.2745953 C35.8448337,49.0986411 35.6018797,48.935726 35.4117875,48.8806173 C35.1560241,48.8064666 34.9307344,48.7767801 34.7464975,48.7984791 C34.6429883,48.8106653 34.5595215,48.8407455 34.5006077,48.8906714 C34.4361666,48.9452716 34.3839445,49.0347085 34.3467626,49.1629346 C34.2821411,49.385846 34.2688395,49.6972758 34.3172728,50.1084753 C34.4105804,50.9008106 34.4395945,51.4535214 34.1170938,51.9943247 C33.8122737,52.5054416 33.2466386,52.8644026 32.1790059,53.2267751 C31.1326458,53.5819311 30.2090665,53.7859481 29.4044466,53.9636901 C28.3367319,54.1995422 27.5011298,54.3841399 26.932854,54.8315537 C26.3943141,55.2555627 25.9890355,56.0415014 25.4755732,57.0373453 C24.8981127,58.1572821 24.1958868,59.5191887 22.9901543,61.0236236 C22.1975238,62.012628 21.5195227,62.7578912 20.5963043,63.1404539 L20.5959107,63.139519 L20.5937293,63.1404539 C19.6514196,63.530922 18.5464737,63.5085341 16.9622625,62.9272193 C16.4267075,62.7307141 15.8801309,62.5392113 15.3673575,62.4106572 C14.8899948,62.2909598 14.4445327,62.2249769 14.0732214,62.2623885 C14.0377452,62.265964 13.9957904,62.2748536 13.948292,62.2884995 C13.6811952,62.3652581 13.4321891,62.582183 13.2513965,62.8546923 C13.0680452,63.1310395 12.964946,63.4467828 12.9921723,63.7170779 C12.9956658,63.7517669 13.0034401,63.7906218 13.0158068,63.8336262 C13.0772464,64.0474185 13.1345693,64.2179767 13.1918594,64.3884364 C13.6253812,65.6784721 14.0585422,66.9688359 12.6270936,69.4571907 C12.7217625,69.5444954 12.8122654,69.6363924 12.8981923,69.7330459 C13.4373063,70.3394876 13.7892476,71.1187018 13.8561325,72.0931254 C13.9103063,72.8824099 13.6407821,73.4302167 13.3338463,74.0540932 C13.1546282,74.4184175 12.9593367,74.8153313 12.8436741,75.2884461 C12.7148247,75.8155051 12.6440526,76.2693155 12.7644553,76.6723143 C12.8538429,76.9714758 13.056351,77.2786412 13.4289088,77.6186423 L13.4300897,77.6161329 C13.6668275,77.1051636 14.0137499,76.5528629 14.4419413,76.1634608 C14.7083,75.9212286 15.0098234,75.7366964 15.3444283,75.6482437 C15.7116065,75.5511802 16.0975314,75.5712227 16.493494,75.7546723 C16.7568841,75.8766824 17.0185029,76.0703501 17.273315,76.3505516 C17.53372,76.6369037 17.7348012,76.8028038 17.9065239,76.8957342 C18.045821,76.971115 18.1788855,76.9989974 18.320446,77.0114788 L18.320446,77.0140375 L18.3405869,77.0158252 C18.5604641,77.0353593 18.793036,77.0560086 19.1873912,76.68783 C19.2804036,76.601001 19.3575721,76.5223563 19.4294431,76.4491076 C20.0119388,75.8554753 20.3636832,75.4970227 21.813239,75.7539999 C22.4011472,75.8582308 22.9111487,75.9995124 23.3401273,76.1183734 C23.435157,76.1446976 23.5249547,76.169595 23.6629069,76.2060553 C24.0731715,76.3145341 24.4666083,76.3521918 24.7089554,76.2091387 C24.933835,76.0764022 25.0801519,75.7259863 25.0665059,75.0210049 C25.0603226,74.7014564 25.0333259,74.3155971 25.0063128,73.9292129 C24.8469732,71.6511076 24.6864527,69.3557973 27.8444111,69.1225366 C28.1998786,69.0962943 28.5694842,69.071151 28.9096492,69.0480578 C31.5709076,68.8672652 32.107791,68.8307721 32.8460837,67.3513494 C33.3932344,66.2549978 34.1761552,65.2040616 35.0534333,64.4736417 C35.4464436,64.1464338 35.8607102,63.8812395 36.2856049,63.7001353 L36.2856049,63.7001353 Z M78.4431411,32.0320532 C78.2694367,31.8606016 78.3577194,31.9503955 78.4410976,32.0344941 L78.4431411,32.0320532 Z M10.8829195,79.0695101 C11.4638899,79.3386571 12.1014615,79.3755767 12.7144638,78.7338883 C12.0425477,78.1645137 11.6789286,77.6161001 11.5087313,77.046463 C11.3037302,76.3603104 11.3944627,75.7094045 11.5725655,74.9809199 C11.7240325,74.3613242 11.9514215,73.8991655 12.1601293,73.4749269 C12.383418,73.0210674 12.5794803,72.6225462 12.5491377,72.1802496 C12.5039191,71.5213069 12.2726101,71.0019074 11.9192255,70.6043867 C11.5026628,70.1357823 10.90803,69.8188088 10.2379508,69.6309964 C10.0961935,69.5912722 9.94480858,69.5634718 9.79352207,69.5357042 C9.0828166,69.4052147 8.37229154,69.274758 7.94936503,68.4082556 C7.82148332,68.146276 7.77050776,67.8399143 7.71210238,67.4888751 C7.6010157,66.8210757 7.45084448,65.9185394 6.50646825,65.5590863 C5.64450907,65.2310091 5.16380043,65.1640258 4.88737123,65.2515601 C4.70985888,65.3077677 4.59152278,65.5091933 4.47205498,65.7532461 C3.75408368,67.2200561 2.85674668,67.6591052 2.11612505,68.021445 C1.74691313,68.20209 1.4373203,68.3535569 1.32913667,68.6389085 C1.29139705,68.7384814 1.29487414,68.912533 1.36895927,69.1131058 C1.43294113,69.2863701 1.55295017,69.4643581 1.74943895,69.6132993 C2.11707633,69.8919754 2.4622602,70.0530536 2.75192533,70.1882011 C3.75483815,70.6561495 4.32908397,70.9241156 4.04194466,72.6645665 L3.99569271,72.9437512 C3.84532467,73.8374635 3.66943606,74.8828559 3.80241861,75.6562803 C3.86887708,76.0427957 4.0119793,76.3718898 4.20187471,76.6361164 C4.40464522,76.9182533 4.6609007,77.1288309 4.9326555,77.2569914 C5.33744205,77.4479037 5.86530472,77.3672088 6.38160439,77.2882853 C7.06241011,77.1842184 7.7287662,77.0823821 8.4257765,77.4079827 C8.72049326,77.545656 9.03925448,77.7948097 9.40764633,78.0827199 C9.84366115,78.4234754 10.3606989,78.8275895 10.8829195,79.0695101 L10.8829195,79.0695101 Z M58.0532644,15.9132289 L57.7827561,15.9058155 C56.7630154,15.9106703 56.662278,16.3322191 56.5321985,16.8769096 C56.4311167,17.3001969 56.3192756,17.7683913 56.0428956,18.2640908 C55.6014355,19.0558684 54.8896967,19.4834693 54.1101546,19.6598007 C53.1978923,19.8661468 52.1840889,19.712318 51.448929,19.4010851 C50.5761613,19.0315943 50.4643529,18.4239716 50.3453936,17.7772808 C50.2704556,17.3699193 50.1896623,16.9308866 49.4585207,16.727378 C48.9468954,16.5849647 48.373568,16.5571315 47.8850523,16.6703995 C47.6442962,16.7262299 47.4307991,16.8165524 47.2681629,16.9444833 C47.1327857,17.0509776 47.0329012,17.1869288 46.9863048,17.3543379 C46.9379207,17.5281764 46.9378715,17.7469711 47.0003608,18.0164625 C47.056224,18.2573498 47.1312768,18.5376005 47.20651,18.8185073 C47.4064923,19.5651647 47.6075898,20.3161028 47.611395,21.0256766 C47.6190052,22.4496133 46.9468758,23.4991389 44.435477,23.5126045 C44.3304753,23.5131621 44.2214552,23.5199359 44.1087775,23.5327946 C43.7411402,23.5747658 43.4714355,23.6840811 43.3076512,23.8562302 C43.1537404,24.01803 43.07421,24.2621156 43.0759322,24.584764 C43.0762766,24.6519277 43.0819679,24.7338527 43.0929896,24.8305062 C43.1439488,25.2767719 43.3387974,25.7602523 43.53814,26.2549514 C43.9959851,27.3910436 44.4734627,28.5759955 43.8305278,30.0517443 C43.4316129,30.9673197 42.6286004,31.3463724 41.6765155,31.795738 C40.5473611,32.3287179 39.1563256,32.9852987 38.3295474,34.9668175 C38.1483283,35.4011102 37.9625168,35.8596769 37.8730144,36.2952817 C37.793074,36.6842901 37.7847913,37.0760376 37.9239736,37.4514164 C38.0111306,37.6864813 38.1495256,37.8985022 38.3216419,38.0777695 C38.5768805,38.3436198 38.9016774,38.540617 39.243991,38.6399111 C39.5645072,38.7328906 39.8981609,38.7374666 40.1956823,38.6271508 C40.3521352,38.569139 40.4988458,38.4799154 40.6281872,38.3557404 C40.7661722,38.2232663 40.9414211,38.0036352 41.1366962,37.7589427 C41.6609506,37.1019682 42.3091503,36.2896888 43.2263986,35.8658603 C43.7592801,35.619626 44.3510754,35.5097038 44.8903043,35.5716683 C45.2323719,35.6109661 45.5574968,35.7191333 45.8419299,35.904584 C46.1386476,36.0980713 46.3826349,36.368432 46.5467473,36.7236043 C46.7313286,37.1231096 46.8109574,37.6240904 46.7407594,38.2348457 C46.6698726,38.8517024 46.6312473,39.447188 46.7808609,39.7505155 C46.8557989,39.9024417 47.1018527,39.9421166 47.6639286,39.763653 C49.4548303,39.1950493 50.3020283,39.8512037 50.6594476,40.9770122 C51.0061404,42.069001 50.7447677,43.5875246 50.5677965,44.6157776 C50.5268095,44.8538932 50.4904803,45.0648808 50.4733081,45.1926149 C50.4454093,45.4000762 50.4477875,45.5840179 50.4764572,45.7458833 C50.5245461,46.0174577 50.6570366,46.220671 50.8480637,46.3641505 C51.0766336,46.5358075 51.395526,46.6424166 51.7683954,46.6925557 C52.2119057,46.7522076 52.723367,46.7277695 53.2531486,46.6339371 C53.3075028,46.6243259 53.3528363,46.6132057 53.3896903,46.6008227 C53.6385323,46.5172084 53.8144373,46.3247215 53.9204724,46.0942818 C54.0394809,45.835681 54.0723821,45.5355025 54.0258678,45.2728505 C54.0155185,45.2143959 54.0034306,45.1643061 53.9897683,45.1236634 C53.9027753,44.8648329 53.726001,44.6774305 53.5448475,44.4853865 C53.0647293,43.9764182 52.564585,43.4461774 52.5659463,41.9144342 C52.5677997,39.8342938 53.69638,38.9565237 55.2249085,38.6964959 C56.5513718,38.4708618 58.1711904,38.7719751 59.5091675,39.1020205 C60.5832296,39.3669523 61.4400879,39.1916378 62.1545329,38.7242307 C62.9182805,38.224562 63.5553273,37.3856796 64.132591,36.3797325 C64.5113649,35.7196582 64.684006,34.577317 64.6404603,33.4835569 C64.6006213,32.4830387 64.3905194,31.5682342 64.0044468,31.1874429 C63.8963616,31.0808502 63.4492266,31.1028772 62.9007474,31.1298903 C62.1606834,31.1663507 61.2872925,31.2093551 60.3606462,30.9140151 C59.4239622,30.6154604 58.770432,30.2434931 58.3105695,29.694079 C57.8448354,29.1376451 57.6097213,28.4420289 57.51438,27.5015726 C57.4070656,26.4426654 57.7007163,25.783854 58.1816217,25.376476 C58.6510134,24.9788896 59.2562251,24.872953 59.8264034,24.8763645 C60.6878705,24.8814653 61.5427443,24.5361666 62.2561232,24.029921 C62.7801807,23.6580193 63.2221492,23.2038809 63.5320865,22.739344 C63.8154863,22.3145806 63.9809928,21.897657 63.9830266,21.5545233 C63.9839123,21.4055658 63.9511915,21.2753223 63.8793205,21.1740436 C63.0451125,19.9984733 62.8525929,18.985162 62.6978949,18.170734 C62.5961406,17.6351135 62.516889,17.2180095 62.2610928,17.0370364 L62.2111669,17.0017242 L62.2047212,16.9960329 C61.59144,16.455656 60.5218063,16.2783405 59.0340681,16.0317782 L58.9982803,16.0258409 C58.6268377,15.9642701 58.3153752,15.9278262 58.0532644,15.9132289 L58.0532644,15.9132289 Z" id="Shape"></path>
                </g>
            </g>
        </g>
    </g>
</svg>